<svg xmlns="http://www.w3.org/2000/svg" version="1.1" xmlns:xlink="http://www.w3.org/1999/xlink" xmlns:svgjs="http://svgjs.dev/svgjs" width="1000" height="373" viewBox="0 0 1000 373"><g transform="matrix(1,0,0,1,-0.6060606060606233,0.030008225912098396)"><svg viewBox="0 0 396 148" data-background-color="#fafafa" preserveAspectRatio="xMidYMid meet" height="373" width="1000" xmlns="http://www.w3.org/2000/svg" xmlns:xlink="http://www.w3.org/1999/xlink"><g id="tight-bounds" transform="matrix(1,0,0,1,0.2400000000000091,-0.011904574877860341)"><svg viewBox="0 0 395.52 148.02381132403332" height="148.02381132403332" width="395.52"><g><svg viewBox="0 0 397.49759999999986 148.76393038065345" height="148.02381132403332" width="395.52"><g><rect width="397.49759999999986" height="3.9188565746962705" x="0" y="66.88139207207217" fill="#130912" opacity="1" stroke-width="0" stroke="transparent" fill-opacity="1" class="rect-o-0" data-fill-palette-color="secondary" rx="1%" id="o-0" data-palette-color="#130912"></rect></g><g transform="matrix(1,0,0,1,0.9887999999999693,81.05903549152308)"><svg viewBox="0 0 395.5199999999999 67.70489488913036" height="67.70489488913036" width="395.5199999999999"><g id="textblocktransform"><svg viewBox="0 0 395.5199999999999 67.70489488913036" height="67.70489488913036" width="395.5199999999999" id="textblock"><g><svg viewBox="0 0 395.5199999999999 43.45544165757906" height="43.45544165757906" width="395.5199999999999"><g transform="matrix(1,0,0,1,0,0)"><svg width="395.5199999999999" viewBox="0.4000000059604645 -39.599998474121094 366.7799987792969 40.29999923706055" height="43.45544165757906" data-palette-color="#130912"><path d="M16.5 0.7Q11.7 0.7 7.43-0.13 3.15-0.95 0.85-2L0.85-2 0.85-11.9 11.85-11.9Q11.85-10.35 12.55-9.65 13.25-8.95 15.1-8.95L15.1-8.95Q16.65-8.95 17.32-9.43 18-9.9 18-10.85L18-10.85Q18-11.65 17.35-12.23 16.7-12.8 15.1-13.4L15.1-13.4 10.8-14.9Q5.25-17 2.83-19.85 0.4-22.7 0.4-27.55L0.4-27.55Q0.4-33.45 4.28-36.52 8.15-39.6 17.2-39.6L17.2-39.6Q21.55-39.6 25.38-38.73 29.2-37.85 31.55-36.4L31.55-36.4 31.55-27.45 21.55-27.45Q21.55-29.95 18.45-29.95L18.45-29.95Q16.95-29.95 16.32-29.58 15.7-29.2 15.7-28.25L15.7-28.25Q15.7-27.4 16.43-26.9 17.15-26.4 18.8-25.85L18.8-25.85 23.15-24.35Q28.45-22.55 30.88-19.68 33.3-16.8 33.3-12.15L33.3-12.15Q33.3-5.8 29.03-2.55 24.75 0.7 16.5 0.7L16.5 0.7ZM68.45 0L34.7 0 34.7-8.2 37.2-8.2 37.2-30.7 34.7-30.7 34.7-38.9 68.45-38.9 68.45-23.8 57.25-23.8 57.25-30.7 51.2-30.7 51.2-22.8 55.6-22.8 55.6-17.1 51.2-17.1 51.2-8.2 57.25-8.2 57.25-16.1 68.45-16.1 68.45 0ZM89.75 0.7Q80.3 0.7 75.17-4.1 70.05-8.9 70.05-19.45L70.05-19.45Q70.05-39.6 89.64-39.6L89.64-39.6Q94.39-39.6 98.47-38.45 102.55-37.3 104.55-35.9L104.55-35.9 104.55-23.4 92.55-23.4 92.55-27Q92.55-28.9 91.69-29.8 90.84-30.7 89.14-30.7L89.14-30.7Q87.44-30.7 86.59-29.8 85.75-28.9 85.75-27L85.75-27 85.75-11.9Q85.75-10 86.59-9.1 87.44-8.2 89.14-8.2L89.14-8.2Q90.84-8.2 91.69-9.1 92.55-10 92.55-11.9L92.55-11.9 92.55-15.95 104.55-15.95 104.55-3Q102.5-1.6 98.47-0.45 94.44 0.7 89.75 0.7L89.75 0.7ZM125.14 0.7Q117.29 0.7 113.02-2.75 108.74-6.2 108.74-13.95L108.74-13.95 108.74-30.7 106.24-30.7 106.24-38.9 124.74-38.9 124.74-30.7 122.74-30.7 122.74-11.4Q122.74-9.75 123.47-8.97 124.19-8.2 125.64-8.2L125.64-8.2Q127.09-8.2 127.82-8.97 128.54-9.75 128.54-11.4L128.54-11.4 128.54-30.7 126.54-30.7 126.54-38.9 143.69-38.9 143.69-30.7 141.19-30.7 141.19-13.95Q141.19-6.2 137.04-2.75 132.89 0.7 125.14 0.7L125.14 0.7ZM145.49 0L145.49-8.2 147.99-8.2 147.99-30.7 145.49-30.7 145.49-38.9 168.44-38.9Q174.89-38.9 178.29-36.25 181.69-33.6 181.69-27.65L181.69-27.65Q181.69-24.3 180.34-21.85 178.99-19.4 176.49-18.45L176.49-18.45 176.54-17.95Q181.34-17.2 181.34-12.05L181.34-12.05 181.34-8.2 183.69-8.2 183.69 0 167.84 0 167.84-11.75Q167.84-13.7 167.27-14.7 166.69-15.7 165.47-16.05 164.24-16.4 161.99-16.4L161.99-16.4 161.99-8.2 165.29-8.2 165.29 0 145.49 0ZM161.99-22.5L164.69-22.5Q166.14-22.5 166.87-23.28 167.59-24.05 167.59-25.7L167.59-25.7 167.59-27.5Q167.59-29.15 166.87-29.93 166.14-30.7 164.69-30.7L164.69-30.7 161.99-30.7 161.99-22.5ZM219.24 0L185.49 0 185.49-8.2 187.99-8.2 187.99-30.7 185.49-30.7 185.49-38.9 219.24-38.9 219.24-23.8 208.04-23.8 208.04-30.7 201.99-30.7 201.99-22.8 206.39-22.8 206.39-17.1 201.99-17.1 201.99-8.2 208.04-8.2 208.04-16.1 219.24-16.1 219.24 0ZM251.63 0.7Q246.83 0.7 242.56-0.13 238.28-0.95 235.98-2L235.98-2 235.98-11.9 246.98-11.9Q246.98-10.35 247.68-9.65 248.38-8.95 250.23-8.95L250.23-8.95Q251.78-8.95 252.46-9.43 253.13-9.9 253.13-10.85L253.13-10.85Q253.13-11.65 252.48-12.23 251.83-12.8 250.23-13.4L250.23-13.4 245.93-14.9Q240.38-17 237.96-19.85 235.53-22.7 235.53-27.55L235.53-27.55Q235.53-33.45 239.41-36.52 243.28-39.6 252.33-39.6L252.33-39.6Q256.68-39.6 260.51-38.73 264.33-37.85 266.68-36.4L266.68-36.4 266.68-27.45 256.68-27.45Q256.68-29.95 253.58-29.95L253.58-29.95Q252.08-29.95 251.46-29.58 250.83-29.2 250.83-28.25L250.83-28.25Q250.83-27.4 251.56-26.9 252.28-26.4 253.93-25.85L253.93-25.85 258.28-24.35Q263.58-22.55 266.01-19.68 268.43-16.8 268.43-12.15L268.43-12.15Q268.43-5.8 264.16-2.55 259.88 0.7 251.63 0.7L251.63 0.7ZM288.53 0.7Q280.68 0.7 276.41-2.75 272.13-6.2 272.13-13.95L272.13-13.95 272.13-30.7 269.63-30.7 269.63-38.9 288.13-38.9 288.13-30.7 286.13-30.7 286.13-11.4Q286.13-9.75 286.86-8.97 287.58-8.2 289.03-8.2L289.03-8.2Q290.48-8.2 291.21-8.97 291.93-9.75 291.93-11.4L291.93-11.4 291.93-30.7 289.93-30.7 289.93-38.9 307.08-38.9 307.08-30.7 304.58-30.7 304.58-13.95Q304.58-6.2 300.43-2.75 296.28 0.7 288.53 0.7L288.53 0.7ZM327.88 0L308.88 0 308.88-8.2 311.38-8.2 311.38-30.7 308.88-30.7 308.88-38.9 327.88-38.9 327.88-30.7 325.38-30.7 325.38-8.2 327.88-8.2 327.88 0ZM367.18-38.9L367.18-26.8 358.58-26.8 358.58-30.7 355.38-30.7 355.38-8.2 358.88-8.2 358.88 0 337.88 0 337.88-8.2 341.38-8.2 341.38-30.7 338.18-30.7 338.18-26.8 329.58-26.8 329.58-38.9 367.18-38.9Z" opacity="1" transform="matrix(1,0,0,1,0,0)" fill="#130912" class="wordmark-text-0" data-fill-palette-color="primary" id="text-0"></path></svg></g></svg></g><g transform="matrix(1,0,0,1,75.54431999999997,53.7142285023337)"><svg viewBox="0 0 244.43135999999998 13.990666386796669" height="13.990666386796669" width="244.43135999999998"><g transform="matrix(1,0,0,1,0,0)"><svg width="244.43135999999998" viewBox="3.299999952316284 -40.150001525878906 823.678466796875 47.150001525878906" height="13.990666386796669" data-palette-color="#130912"><path d="M12.45-17.5L19.8-17.5Q21.05-17.5 22.48-16.93 23.9-16.35 25.15-15.5L25.15-15.5 25.1-15.5Q26.4-14.55 27.1-13.05 27.8-11.55 27.8-9.45L27.8-9.45 27.8-7.95Q27.8-3.85 25.1-1.9L25.1-1.9Q23.8-0.9 22.45-0.45 21.1 0 19.8 0L19.8 0 11.3 0Q10 0 8.65-0.45 7.3-0.9 6-1.9L6-1.9Q3.3-3.8 3.3-7.95L3.3-7.95 3.3-8.55Q3.3-10.7 6.05-10.65L6.05-10.65Q8.85-10.65 8.85-8.55L8.85-8.55 8.85-8Q8.85-6.8 9.6-5.75 10.35-4.7 12.25-4.7L12.25-4.7 18.85-4.7Q20.75-4.7 21.5-5.75 22.25-6.8 22.25-8L22.25-8 22.25-9.4Q22.25-10.05 22.08-10.65 21.9-11.25 21.5-11.73 21.1-12.2 20.45-12.5 19.8-12.8 18.85-12.8L18.85-12.8 11.55-12.8Q9-12.8 6.2-14.6L6.2-14.6Q3.55-16.3 3.55-20.45L3.55-20.45 3.55-22.15Q3.55-24.15 4.25-25.68 4.95-27.2 6.25-28.15L6.25-28.15 6.2-28.15Q7.45-29 8.85-29.55 10.25-30.1 11.55-30.1L11.55-30.1 19.55-30.1Q20.85-30.1 22.23-29.55 23.6-29 24.9-28.15L24.9-28.15 24.85-28.15Q26.15-27.2 26.85-25.68 27.55-24.15 27.55-22.15L27.55-22.15 27.55-21.7Q27.55-20.65 26.85-20.18 26.15-19.7 24.8-19.65L24.8-19.65Q22.05-19.6 22.05-21.7L22.05-21.7 22.05-22.1Q22.05-23.35 21.28-24.38 20.5-25.4 18.65-25.4L18.65-25.4 12.45-25.4Q10.6-25.4 9.83-24.38 9.05-23.35 9.05-22.1L9.05-22.1 9.05-20.9Q9.05-19.6 9.83-18.55 10.6-17.5 12.45-17.5L12.45-17.5ZM45-25.4L40.85-25.4 40.85-7.2Q40.85-5.9 41.4-5.2 41.95-4.5 43.75-4.5L43.75-4.5 45.05-4.5Q47-4.5 46.9-2.2L46.9-2.2Q46.9 0.15 45.05 0.15L45.05 0.15 43.4 0.15Q41.8 0.15 40.4-0.28 39-0.7 37.7-1.5L37.7-1.5 37.7-1.45Q35.25-3.05 35.25-7.15L35.25-7.15 35.25-25.4 33.3-25.4Q31.5-25.4 31.4-27.75L31.4-27.75Q31.4-30.1 33.3-30.1L33.3-30.1 35.25-30.1 35.25-35.45Q35.25-37.85 38.1-37.85L38.1-37.85Q40.85-37.85 40.85-35.45L40.85-35.45 40.85-30.1 45-30.1Q46.95-30.1 46.85-27.75L46.85-27.75Q46.85-25.4 45-25.4L45-25.4ZM59.25-30.1L67.25-30.1Q68.55-30.1 69.92-29.55 71.3-29 72.59-28.15L72.59-28.15 72.55-28.15Q73.84-27.2 74.55-25.68 75.25-24.15 75.25-22.15L75.25-22.15 75.25-7.95Q75.25-3.85 72.55-1.9L72.55-1.9Q69.9 0 67.25 0L67.25 0 59.25 0Q57.95 0 56.59-0.45 55.25-0.9 53.95-1.9L53.95-1.9Q51.24-3.8 51.24-7.95L51.24-7.95 51.24-22.15Q51.24-24.15 51.95-25.68 52.65-27.2 53.95-28.15L53.95-28.15 53.9-28.15Q55.15-29 56.55-29.55 57.95-30.1 59.25-30.1L59.25-30.1ZM60.15-4.7L66.34-4.7Q68.19-4.7 68.97-5.75 69.75-6.8 69.75-8L69.75-8 69.75-22.1Q69.75-23.35 68.97-24.38 68.19-25.4 66.34-25.4L66.34-25.4 60.15-25.4Q58.3-25.4 57.52-24.38 56.75-23.35 56.75-22.1L56.75-22.1 56.75-8Q56.75-6.8 57.52-5.75 58.3-4.7 60.15-4.7L60.15-4.7ZM86.94-22.75L86.94-2.1Q86.94 0.3 84.19 0.3L84.19 0.3Q81.34 0.3 81.34-2.1L81.34-2.1 81.34-22.8Q81.34-26.9 83.79-28.5L83.79-28.5Q86.24-30.1 89.44-30.1L89.44-30.1 95.14-30.1Q96.99-30.1 96.99-27.75L96.99-27.75Q97.09-25.4 95.14-25.4L95.14-25.4 89.84-25.4Q88.04-25.4 87.49-24.7 86.94-24 86.94-22.75L86.94-22.75ZM106.74-22.15L106.74-8Q106.74-6.8 107.52-5.75 108.29-4.7 110.14-4.7L110.14-4.7 116.39-4.7Q118.24-4.7 119.02-5.63 119.79-6.55 119.79-7.75L119.79-7.75 119.79-8.3Q119.79-10.65 122.54-10.65L122.54-10.65Q125.29-10.65 125.29-8.3L125.29-8.3 125.29-7.7Q125.29-5.6 124.62-4.25 123.94-2.9 122.59-1.9L122.59-1.9Q119.94 0 117.29 0L117.29 0 108.89 0Q106.24 0 103.74-1.9L103.74-1.9Q102.54-2.9 101.89-4.42 101.24-5.95 101.24-7.95L101.24-7.95 101.24-22.2Q101.24-26.25 103.74-28.2L103.74-28.2Q104.99-29.1 106.32-29.63 107.64-30.15 108.89-30.15L108.89-30.15 117.29-30.15Q118.49-30.15 119.94-29.68 121.39-29.2 122.64-28.4L122.64-28.4Q123.84-27.55 124.57-26.05 125.29-24.55 125.29-22.5L125.29-22.5 125.29-15.75Q125.29-14.6 124.62-13.7 123.94-12.8 122.14-12.8L122.14-12.8 111.34-12.8Q109.54-12.8 109.44-15.15L109.44-15.15Q109.44-17.5 111.34-17.5L111.34-17.5 119.84-17.5 119.79-22.15Q119.79-23.4 119.02-24.43 118.24-25.45 116.39-25.45L116.39-25.45 110.14-25.45Q108.29-25.45 107.52-24.43 106.74-23.4 106.74-22.15L106.74-22.15ZM160.74 0L154.19 0Q152.64 0 151.24-0.43 149.84-0.85 148.53-1.65L148.53-1.65 148.53-1.6Q146.09-3.15 146.09-7.3L146.09-7.3 146.09-9.75Q146.09-11.8 146.81-13.33 147.53-14.85 148.84-15.75L148.84-15.75 148.78-15.75Q150.03-16.6 151.44-17.03 152.84-17.45 154.14-17.45L154.14-17.45 165.19-17.45 165.19-22.1Q165.19-23.35 164.41-24.38 163.64-25.4 161.78-25.4L161.78-25.4 155.94-25.4Q154.03-25.4 153.31-24.48 152.59-23.55 152.59-22.3L152.59-22.3 152.59-21.9Q152.59-19.3 149.78-19.3L149.78-19.3Q146.99-19.3 146.99-21.9L146.99-21.9 146.99-22.35Q146.99-24.4 147.71-25.8 148.44-27.2 149.69-28.15L149.69-28.15 149.64-28.15Q150.94-29 152.36-29.55 153.78-30.1 155.09-30.1L155.09-30.1 162.69-30.1Q163.94-30.1 165.36-29.55 166.79-29 168.04-28.15L168.04-28.15 167.99-28.15Q169.29-27.2 169.99-25.68 170.69-24.15 170.69-22.15L170.69-22.15 170.69-2.1Q170.69 0.3 167.94 0.3L167.94 0.3Q167.39 0.3 166.91 0.25 166.44 0.2 166.06-0.03 165.69-0.25 165.46-0.68 165.24-1.1 165.24-1.8L165.24-1.8 165.19-12.75 155.09-12.75Q153.99-12.75 153.39-12.5 152.78-12.25 152.44-11.7L152.44-11.7Q152.03-10.85 151.86-10.38 151.69-9.9 151.69-9.3L151.69-9.3 151.69-7.35Q151.69-6.05 152.46-5.38 153.24-4.7 155.14-4.7L155.14-4.7 160.74-4.7Q162.59-4.7 162.59-2.35L162.59-2.35Q162.59-1.35 162.14-0.68 161.69 0 160.74 0L160.74 0ZM182.83-37.8L182.83-1.95Q182.83 0.4 180.08 0.4L180.08 0.4Q177.28 0.4 177.28-1.95L177.28-1.95 177.28-37.8Q177.28-40.15 180.08-40.15L180.08-40.15Q182.83-40.15 182.83-37.8L182.83-37.8ZM195.43-37.8L195.43-1.95Q195.43 0.4 192.68 0.4L192.68 0.4Q189.88 0.4 189.88-1.95L189.88-1.95 189.88-37.8Q189.88-40.15 192.68-40.15L192.68-40.15Q195.43-40.15 195.43-37.8L195.43-37.8ZM221.53 7L218.93 7Q217.18 7 217.08 4.65L217.08 4.65Q217.08 2.3 218.93 2.3L218.93 2.3 221.13 2.3Q222.88 2.3 223.43 1.25L223.43 1.25 224.13-0.6 224.38-1.4 214.63-26.95 214.63-26.9Q214.22-28.1 214.8-28.95 215.38-29.8 216.58-30.2L216.58-30.2Q217.47-30.45 218.03-30.45L218.03-30.45Q219.47-30.45 219.83-28.75L219.83-28.75 223.78-18.9 227.13-10.7 232.47-28.65Q232.93-30.45 234.58-30.45L234.58-30.45Q234.98-30.45 235.88-30.2L235.88-30.2Q237.08-29.85 237.6-29.05 238.13-28.25 237.83-27.15L237.83-27.15Q235.58-19.5 233.25-11.75 230.93-4 228.68 3.6L228.68 3.6Q228.43 4.15 227.9 4.73 227.38 5.3 226.53 5.83 225.68 6.35 224.43 6.68 223.18 7 221.53 7L221.53 7ZM250.07-30.1L258.07-30.1Q259.37-30.1 260.75-29.55 262.12-29 263.42-28.15L263.42-28.15 263.37-28.15Q264.67-27.2 265.37-25.68 266.07-24.15 266.07-22.15L266.07-22.15 266.07-7.95Q266.07-3.85 263.37-1.9L263.37-1.9Q260.72 0 258.07 0L258.07 0 250.07 0Q248.77 0 247.42-0.45 246.07-0.9 244.77-1.9L244.77-1.9Q242.07-3.8 242.07-7.95L242.07-7.95 242.07-22.15Q242.07-24.15 242.77-25.68 243.47-27.2 244.77-28.15L244.77-28.15 244.72-28.15Q245.97-29 247.37-29.55 248.77-30.1 250.07-30.1L250.07-30.1ZM250.97-4.7L257.17-4.7Q259.02-4.7 259.8-5.75 260.57-6.8 260.57-8L260.57-8 260.57-22.1Q260.57-23.35 259.8-24.38 259.02-25.4 257.17-25.4L257.17-25.4 250.97-25.4Q249.12-25.4 248.35-24.38 247.57-23.35 247.57-22.1L247.57-22.1 247.57-8Q247.57-6.8 248.35-5.75 249.12-4.7 250.97-4.7L250.97-4.7ZM296.42-28L296.42-7.95Q296.42-5.95 295.72-4.4 295.02-2.85 293.72-1.9L293.72-1.9 293.77-1.9Q292.52-1.05 291.12-0.53 289.72 0 288.42 0L288.42 0 280.37 0Q279.12 0 277.69-0.53 276.27-1.05 275.02-1.9L275.02-1.9 275.07-1.9Q273.77-2.85 273.07-4.4 272.37-5.95 272.37-7.95L272.37-7.95 272.37-28Q272.37-30.4 275.12-30.4L275.12-30.4Q277.87-30.4 277.87-28L277.87-28 277.87-8.35Q277.87-6.95 278.57-5.9L278.57-5.9Q279.22-4.7 281.27-4.7L281.27-4.7 287.52-4.7Q289.52-4.7 290.17-5.9L290.17-5.9 290.12-5.85Q290.92-7.05 290.92-8.35L290.92-8.35 290.92-28Q290.92-30.4 293.67-30.4L293.67-30.4Q296.42-30.4 296.42-28L296.42-28ZM308.07-22.75L308.07-2.1Q308.07 0.3 305.32 0.3L305.32 0.3Q302.47 0.3 302.47-2.1L302.47-2.1 302.47-22.8Q302.47-26.9 304.92-28.5L304.92-28.5Q307.37-30.1 310.57-30.1L310.57-30.1 316.27-30.1Q318.12-30.1 318.12-27.75L318.12-27.75Q318.22-25.4 316.27-25.4L316.27-25.4 310.97-25.4Q309.17-25.4 308.62-24.7 308.07-24 308.07-22.75L308.07-22.75ZM353.41 0L347.46 0Q345.66 0 345.56-2.35L345.56-2.35Q345.56-4.7 347.46-4.7L347.46-4.7 352.51-4.7Q354.36-4.7 355.14-5.75 355.91-6.8 355.91-8L355.91-8 355.91-22.1Q355.91-23.35 355.14-24.43 354.36-25.5 352.46-25.4L352.46-25.4 342.86-25.4 342.86 4.65Q342.86 7 340.11 7L340.11 7Q337.36 7 337.36 4.6L337.36 4.6 337.36-27.15Q337.36-28.9 338.26-29.5 339.16-30.1 340.46-30.1L340.46-30.1 353.41-30.1Q354.71-30.1 356.04-29.65 357.36-29.2 358.76-28.4L358.76-28.4Q359.96-27.55 360.69-26.03 361.41-24.5 361.41-22.45L361.41-22.45 361.41-7.65Q361.41-3.55 358.76-1.8L358.76-1.8Q355.96 0 353.41 0L353.41 0ZM381.76 0L375.21 0Q373.66 0 372.26-0.43 370.86-0.85 369.56-1.65L369.56-1.65 369.56-1.6Q367.11-3.15 367.11-7.3L367.11-7.3 367.11-9.75Q367.11-11.8 367.84-13.33 368.56-14.85 369.86-15.75L369.86-15.75 369.81-15.75Q371.06-16.6 372.46-17.03 373.86-17.45 375.16-17.45L375.16-17.45 386.21-17.45 386.21-22.1Q386.21-23.35 385.44-24.38 384.66-25.4 382.81-25.4L382.81-25.4 376.96-25.4Q375.06-25.4 374.34-24.48 373.61-23.55 373.61-22.3L373.61-22.3 373.61-21.9Q373.61-19.3 370.81-19.3L370.81-19.3Q368.01-19.3 368.01-21.9L368.01-21.9 368.01-22.35Q368.01-24.4 368.74-25.8 369.46-27.2 370.71-28.15L370.71-28.15 370.66-28.15Q371.96-29 373.38-29.55 374.81-30.1 376.11-30.1L376.11-30.1 383.71-30.1Q384.96-30.1 386.38-29.55 387.81-29 389.06-28.15L389.06-28.15 389.01-28.15Q390.31-27.2 391.01-25.68 391.71-24.15 391.71-22.15L391.71-22.15 391.71-2.1Q391.71 0.3 388.96 0.3L388.96 0.3Q388.41 0.3 387.94 0.25 387.46 0.2 387.09-0.03 386.71-0.25 386.49-0.68 386.26-1.1 386.26-1.8L386.26-1.8 386.21-12.75 376.11-12.75Q375.01-12.75 374.41-12.5 373.81-12.25 373.46-11.7L373.46-11.7Q373.06-10.85 372.88-10.38 372.71-9.9 372.71-9.3L372.71-9.3 372.71-7.35Q372.71-6.05 373.49-5.38 374.26-4.7 376.16-4.7L376.16-4.7 381.76-4.7Q383.61-4.7 383.61-2.35L383.61-2.35Q383.61-1.35 383.16-0.68 382.71 0 381.76 0L381.76 0ZM407.06-17.5L414.41-17.5Q415.66-17.5 417.08-16.93 418.51-16.35 419.76-15.5L419.76-15.5 419.71-15.5Q421.01-14.55 421.71-13.05 422.41-11.55 422.41-9.45L422.41-9.45 422.41-7.95Q422.41-3.85 419.71-1.9L419.71-1.9Q418.41-0.9 417.06-0.45 415.71 0 414.41 0L414.41 0 405.91 0Q404.61 0 403.26-0.45 401.91-0.9 400.61-1.9L400.61-1.9Q397.91-3.8 397.91-7.95L397.91-7.95 397.91-8.55Q397.91-10.7 400.66-10.65L400.66-10.65Q403.46-10.65 403.46-8.55L403.46-8.55 403.46-8Q403.46-6.8 404.21-5.75 404.96-4.7 406.86-4.7L406.86-4.7 413.46-4.7Q415.36-4.7 416.11-5.75 416.86-6.8 416.86-8L416.86-8 416.86-9.4Q416.86-10.05 416.68-10.65 416.51-11.25 416.11-11.73 415.71-12.2 415.06-12.5 414.41-12.8 413.46-12.8L413.46-12.8 406.16-12.8Q403.61-12.8 400.81-14.6L400.81-14.6Q398.16-16.3 398.16-20.45L398.16-20.45 398.16-22.15Q398.16-24.15 398.86-25.68 399.56-27.2 400.86-28.15L400.86-28.15 400.81-28.15Q402.06-29 403.46-29.55 404.86-30.1 406.16-30.1L406.16-30.1 414.16-30.1Q415.46-30.1 416.83-29.55 418.21-29 419.51-28.15L419.51-28.15 419.46-28.15Q420.76-27.2 421.46-25.68 422.16-24.15 422.16-22.15L422.16-22.15 422.16-21.7Q422.16-20.65 421.46-20.18 420.76-19.7 419.41-19.65L419.41-19.65Q416.66-19.6 416.66-21.7L416.66-21.7 416.66-22.1Q416.66-23.35 415.88-24.38 415.11-25.4 413.26-25.4L413.26-25.4 407.06-25.4Q405.21-25.4 404.43-24.38 403.66-23.35 403.66-22.1L403.66-22.1 403.66-20.9Q403.66-19.6 404.43-18.55 405.21-17.5 407.06-17.5L407.06-17.5ZM437.81-17.5L445.16-17.5Q446.41-17.5 447.83-16.93 449.25-16.35 450.5-15.5L450.5-15.5 450.46-15.5Q451.75-14.55 452.46-13.05 453.16-11.55 453.16-9.45L453.16-9.45 453.16-7.95Q453.16-3.85 450.46-1.9L450.46-1.9Q449.16-0.9 447.81-0.45 446.46 0 445.16 0L445.16 0 436.66 0Q435.36 0 434-0.45 432.66-0.9 431.36-1.9L431.36-1.9Q428.66-3.8 428.66-7.95L428.66-7.95 428.66-8.55Q428.66-10.7 431.41-10.65L431.41-10.65Q434.21-10.65 434.21-8.55L434.21-8.55 434.21-8Q434.21-6.8 434.96-5.75 435.71-4.7 437.61-4.7L437.61-4.7 444.21-4.7Q446.11-4.7 446.86-5.75 447.61-6.8 447.61-8L447.61-8 447.61-9.4Q447.61-10.05 447.43-10.65 447.25-11.25 446.86-11.73 446.46-12.2 445.81-12.5 445.16-12.8 444.21-12.8L444.21-12.8 436.91-12.8Q434.36-12.8 431.56-14.6L431.56-14.6Q428.91-16.3 428.91-20.45L428.91-20.45 428.91-22.15Q428.91-24.15 429.61-25.68 430.31-27.2 431.61-28.15L431.61-28.15 431.56-28.15Q432.81-29 434.21-29.55 435.61-30.1 436.91-30.1L436.91-30.1 444.91-30.1Q446.21-30.1 447.58-29.55 448.96-29 450.25-28.15L450.25-28.15 450.21-28.15Q451.5-27.2 452.21-25.68 452.91-24.15 452.91-22.15L452.91-22.15 452.91-21.7Q452.91-20.65 452.21-20.18 451.5-19.7 450.16-19.65L450.16-19.65Q447.41-19.6 447.41-21.7L447.41-21.7 447.41-22.1Q447.41-23.35 446.63-24.38 445.86-25.4 444-25.4L444-25.4 437.81-25.4Q435.96-25.4 435.18-24.38 434.41-23.35 434.41-22.1L434.41-22.1 434.41-20.9Q434.41-19.6 435.18-18.55 435.96-17.5 437.81-17.5L437.81-17.5ZM473.7-15.6L470.15-1.55 470.2-1.6Q469.85-0.45 468.85-0.1 467.85 0.25 466.85 0.25L466.85 0.25Q465.9 0.25 464.88-0.1 463.85-0.45 463.55-1.6L463.55-1.6 463.6-1.55 457.05-27.45Q456.45-29.55 459-30.25L459-30.25Q461.45-30.9 462.15-28.55L462.15-28.55 462.15-28.6 466.2-12.3 467.55-12.3 471.6-28.6Q471.85-29.65 472.73-29.98 473.6-30.3 474.35-30.3L474.35-30.3Q475.2-30.3 476.03-29.93 476.85-29.55 477.15-28.6L477.15-28.6Q477.6-26.8 477.98-25.25 478.35-23.7 478.7-22.25 479.05-20.8 479.38-19.4 479.7-18 480.1-16.5L480.1-16.5 481.2-12.25 482.55-12.25Q483.55-16.3 484.58-20.43 485.6-24.55 486.6-28.6L486.6-28.6 486.55-28.55Q487.25-30.9 489.7-30.25L489.7-30.25Q492.25-29.65 491.65-27.45L491.65-27.45 485.15-1.55 485.2-1.6Q484.9-0.45 483.88-0.1 482.85 0.25 481.85 0.25L481.85 0.25Q480.9 0.25 479.9-0.1 478.9-0.45 478.55-1.6L478.55-1.6 478.6-1.55 475.05-15.6 473.7-15.6ZM503.55-30.1L511.55-30.1Q512.85-30.1 514.23-29.55 515.6-29 516.9-28.15L516.9-28.15 516.85-28.15Q518.15-27.2 518.85-25.68 519.55-24.15 519.55-22.15L519.55-22.15 519.55-7.95Q519.55-3.85 516.85-1.9L516.85-1.9Q514.2 0 511.55 0L511.55 0 503.55 0Q502.25 0 500.9-0.45 499.55-0.9 498.25-1.9L498.25-1.9Q495.55-3.8 495.55-7.95L495.55-7.95 495.55-22.15Q495.55-24.15 496.25-25.68 496.95-27.2 498.25-28.15L498.25-28.15 498.2-28.15Q499.45-29 500.85-29.55 502.25-30.1 503.55-30.1L503.55-30.1ZM504.45-4.7L510.65-4.7Q512.5-4.7 513.27-5.75 514.05-6.8 514.05-8L514.05-8 514.05-22.1Q514.05-23.35 513.27-24.38 512.5-25.4 510.65-25.4L510.65-25.4 504.45-25.4Q502.6-25.4 501.82-24.38 501.05-23.35 501.05-22.1L501.05-22.1 501.05-8Q501.05-6.8 501.82-5.75 502.6-4.7 504.45-4.7L504.45-4.7ZM531.25-22.75L531.25-2.1Q531.25 0.3 528.5 0.3L528.5 0.3Q525.65 0.3 525.65-2.1L525.65-2.1 525.65-22.8Q525.65-26.9 528.1-28.5L528.1-28.5Q530.55-30.1 533.75-30.1L533.75-30.1 539.45-30.1Q541.3-30.1 541.3-27.75L541.3-27.75Q541.4-25.4 539.45-25.4L539.45-25.4 534.15-25.4Q532.35-25.4 531.8-24.7 531.25-24 531.25-22.75L531.25-22.75ZM564.09-1.75L564.09-25.4 554.44-25.4Q552.39-25.4 551.74-24.2L551.74-24.2Q551.04-23.15 551.04-21.75L551.04-21.75 551.04-7.35Q551.04-6.05 551.84-5.38 552.64-4.7 554.49-4.7L554.49-4.7 559.64-4.7Q561.44-4.7 561.44-2.35L561.44-2.35Q561.44-1.35 561.02-0.68 560.59 0 559.64 0L559.64 0 553.59 0Q550.44 0 547.99-1.6L547.99-1.6Q545.54-3.1 545.54-7.3L545.54-7.3 545.54-22.2Q545.54-24.25 546.19-25.75 546.84-27.25 548.24-28.2L548.24-28.2Q550.89-30.1 553.54-30.1L553.54-30.1 564.09-30.1 564.09-37.6Q564.09-40 566.84-40L566.84-40Q569.59-40 569.59-37.6L569.59-37.6 569.59-2.1Q569.59 0.3 566.84 0.3L566.84 0.3Q565.79 0.3 564.94-0.08 564.09-0.45 564.09-1.75L564.09-1.75ZM585.09-17.5L592.44-17.5Q593.69-17.5 595.12-16.93 596.54-16.35 597.79-15.5L597.79-15.5 597.74-15.5Q599.04-14.55 599.74-13.05 600.44-11.55 600.44-9.45L600.44-9.45 600.44-7.95Q600.44-3.85 597.74-1.9L597.74-1.9Q596.44-0.9 595.09-0.45 593.74 0 592.44 0L592.44 0 583.94 0Q582.64 0 581.29-0.45 579.94-0.9 578.64-1.9L578.64-1.9Q575.94-3.8 575.94-7.95L575.94-7.95 575.94-8.55Q575.94-10.7 578.69-10.65L578.69-10.65Q581.49-10.65 581.49-8.55L581.49-8.55 581.49-8Q581.49-6.8 582.24-5.75 582.99-4.7 584.89-4.7L584.89-4.7 591.49-4.7Q593.39-4.7 594.14-5.75 594.89-6.8 594.89-8L594.89-8 594.89-9.4Q594.89-10.05 594.72-10.65 594.54-11.25 594.14-11.73 593.74-12.2 593.09-12.5 592.44-12.8 591.49-12.8L591.49-12.8 584.19-12.8Q581.64-12.8 578.84-14.6L578.84-14.6Q576.19-16.3 576.19-20.45L576.19-20.45 576.19-22.15Q576.19-24.15 576.89-25.68 577.59-27.2 578.89-28.15L578.89-28.15 578.84-28.15Q580.09-29 581.49-29.55 582.89-30.1 584.19-30.1L584.19-30.1 592.19-30.1Q593.49-30.1 594.87-29.55 596.24-29 597.54-28.15L597.54-28.15 597.49-28.15Q598.79-27.2 599.49-25.68 600.19-24.15 600.19-22.15L600.19-22.15 600.19-21.7Q600.19-20.65 599.49-20.18 598.79-19.7 597.44-19.65L597.44-19.65Q594.69-19.6 594.69-21.7L594.69-21.7 594.69-22.1Q594.69-23.35 593.92-24.38 593.14-25.4 591.29-25.4L591.29-25.4 585.09-25.4Q583.24-25.4 582.47-24.38 581.69-23.35 581.69-22.1L581.69-22.1 581.69-20.9Q581.69-19.6 582.47-18.55 583.24-17.5 585.09-17.5L585.09-17.5ZM630.84-17.5L638.19-17.5Q639.44-17.5 640.86-16.93 642.29-16.35 643.54-15.5L643.54-15.5 643.49-15.5Q644.79-14.55 645.49-13.05 646.19-11.55 646.19-9.45L646.19-9.45 646.19-7.95Q646.19-3.85 643.49-1.9L643.49-1.9Q642.19-0.9 640.84-0.45 639.49 0 638.19 0L638.19 0 629.69 0Q628.39 0 627.04-0.45 625.69-0.9 624.39-1.9L624.39-1.9Q621.69-3.8 621.69-7.95L621.69-7.95 621.69-8.55Q621.69-10.7 624.44-10.65L624.44-10.65Q627.24-10.65 627.24-8.55L627.24-8.55 627.24-8Q627.24-6.8 627.99-5.75 628.74-4.7 630.64-4.7L630.64-4.7 637.24-4.7Q639.14-4.7 639.89-5.75 640.64-6.8 640.64-8L640.64-8 640.64-9.4Q640.64-10.05 640.46-10.65 640.29-11.25 639.89-11.73 639.49-12.2 638.84-12.5 638.19-12.8 637.24-12.8L637.24-12.8 629.94-12.8Q627.39-12.8 624.59-14.6L624.59-14.6Q621.94-16.3 621.94-20.45L621.94-20.45 621.94-22.15Q621.94-24.15 622.64-25.68 623.34-27.2 624.64-28.15L624.64-28.15 624.59-28.15Q625.84-29 627.24-29.55 628.64-30.1 629.94-30.1L629.94-30.1 637.94-30.1Q639.24-30.1 640.61-29.55 641.99-29 643.29-28.15L643.29-28.15 643.24-28.15Q644.54-27.2 645.24-25.68 645.94-24.15 645.94-22.15L645.94-22.15 645.94-21.7Q645.94-20.65 645.24-20.18 644.54-19.7 643.19-19.65L643.19-19.65Q640.44-19.6 640.44-21.7L640.44-21.7 640.44-22.1Q640.44-23.35 639.66-24.38 638.89-25.4 637.04-25.4L637.04-25.4 630.84-25.4Q628.99-25.4 628.21-24.38 627.44-23.35 627.44-22.1L627.44-22.1 627.44-20.9Q627.44-19.6 628.21-18.55 628.99-17.5 630.84-17.5L630.84-17.5ZM658.18-22.15L658.18-8Q658.18-6.8 658.96-5.75 659.73-4.7 661.58-4.7L661.58-4.7 667.83-4.7Q669.68-4.7 670.46-5.63 671.23-6.55 671.23-7.75L671.23-7.75 671.23-8.3Q671.23-10.65 673.98-10.65L673.98-10.65Q676.73-10.65 676.73-8.3L676.73-8.3 676.73-7.7Q676.73-5.6 676.06-4.25 675.38-2.9 674.03-1.9L674.03-1.9Q671.38 0 668.73 0L668.73 0 660.33 0Q657.68 0 655.18-1.9L655.18-1.9Q653.98-2.9 653.33-4.42 652.68-5.95 652.68-7.95L652.68-7.95 652.68-22.2Q652.68-26.25 655.18-28.2L655.18-28.2Q656.43-29.1 657.76-29.63 659.08-30.15 660.33-30.15L660.33-30.15 668.73-30.15Q669.93-30.15 671.38-29.68 672.83-29.2 674.08-28.4L674.08-28.4Q675.28-27.55 676.01-26.05 676.73-24.55 676.73-22.5L676.73-22.5 676.73-15.75Q676.73-14.6 676.06-13.7 675.38-12.8 673.58-12.8L673.58-12.8 662.78-12.8Q660.98-12.8 660.88-15.15L660.88-15.15Q660.88-17.5 662.78-17.5L662.78-17.5 671.28-17.5 671.23-22.15Q671.23-23.4 670.46-24.43 669.68-25.45 667.83-25.45L667.83-25.45 661.58-25.45Q659.73-25.45 658.96-24.43 658.18-23.4 658.18-22.15L658.18-22.15ZM707.13-10.3L707.13-7.95Q707.13-3.85 704.43-1.9L704.43-1.9Q701.78 0 699.13 0L699.13 0 690.73 0Q688.08 0 685.58-1.9L685.58-1.9Q684.38-2.9 683.73-4.42 683.08-5.95 683.08-7.95L683.08-7.95 683.08-22.2Q683.08-26.25 685.58-28.2L685.58-28.2Q686.83-29.1 688.16-29.63 689.48-30.15 690.73-30.15L690.73-30.15 699.13-30.15Q700.33-30.15 701.78-29.68 703.23-29.2 704.48-28.4L704.48-28.4Q705.68-27.55 706.41-26.05 707.13-24.55 707.13-22.5L707.13-22.5 707.13-20Q707.13-17.6 704.38-17.6L704.38-17.6Q701.63-17.6 701.63-20L701.63-20 701.63-22.15Q701.63-23.4 700.86-24.43 700.08-25.45 698.23-25.45L698.23-25.45 691.98-25.45Q690.13-25.45 689.36-24.43 688.58-23.4 688.58-22.15L688.58-22.15 688.58-8Q688.58-6.8 689.36-5.75 690.13-4.7 691.98-4.7L691.98-4.7 698.23-4.7Q700.08-4.7 700.86-5.75 701.63-6.8 701.63-8L701.63-8 701.63-10.3Q701.63-12.65 704.38-12.65L704.38-12.65Q707.13-12.65 707.13-10.3L707.13-10.3ZM737.43-28L737.43-7.95Q737.43-5.95 736.73-4.4 736.03-2.85 734.73-1.9L734.73-1.9 734.78-1.9Q733.53-1.05 732.13-0.53 730.73 0 729.43 0L729.43 0 721.38 0Q720.13 0 718.7-0.53 717.28-1.05 716.03-1.9L716.03-1.9 716.08-1.9Q714.78-2.85 714.08-4.4 713.38-5.95 713.38-7.95L713.38-7.95 713.38-28Q713.38-30.4 716.13-30.4L716.13-30.4Q718.88-30.4 718.88-28L718.88-28 718.88-8.35Q718.88-6.95 719.58-5.9L719.58-5.9Q720.23-4.7 722.28-4.7L722.28-4.7 728.53-4.7Q730.53-4.7 731.18-5.9L731.18-5.9 731.13-5.85Q731.93-7.05 731.93-8.35L731.93-8.35 731.93-28Q731.93-30.4 734.68-30.4L734.68-30.4Q737.43-30.4 737.43-28L737.43-28ZM749.08-22.75L749.08-2.1Q749.08 0.3 746.33 0.3L746.33 0.3Q743.48 0.3 743.48-2.1L743.48-2.1 743.48-22.8Q743.48-26.9 745.93-28.5L745.93-28.5Q748.38-30.1 751.58-30.1L751.58-30.1 757.28-30.1Q759.13-30.1 759.13-27.75L759.13-27.75Q759.23-25.4 757.28-25.4L757.28-25.4 751.98-25.4Q750.18-25.4 749.63-24.7 749.08-24 749.08-22.75L749.08-22.75ZM768.87-22.15L768.87-8Q768.87-6.8 769.65-5.75 770.42-4.7 772.27-4.7L772.27-4.7 778.52-4.7Q780.37-4.7 781.15-5.63 781.92-6.55 781.92-7.75L781.92-7.75 781.92-8.3Q781.92-10.65 784.67-10.65L784.67-10.65Q787.42-10.65 787.42-8.3L787.42-8.3 787.42-7.7Q787.42-5.6 786.75-4.25 786.07-2.9 784.72-1.9L784.72-1.9Q782.07 0 779.42 0L779.42 0 771.02 0Q768.37 0 765.87-1.9L765.87-1.9Q764.67-2.9 764.02-4.42 763.37-5.95 763.37-7.95L763.37-7.95 763.37-22.2Q763.37-26.25 765.87-28.2L765.87-28.2Q767.12-29.1 768.45-29.63 769.77-30.15 771.02-30.15L771.02-30.15 779.42-30.15Q780.62-30.15 782.07-29.68 783.52-29.2 784.77-28.4L784.77-28.4Q785.97-27.55 786.7-26.05 787.42-24.55 787.42-22.5L787.42-22.5 787.42-15.75Q787.42-14.6 786.75-13.7 786.07-12.8 784.27-12.8L784.27-12.8 773.47-12.8Q771.67-12.8 771.57-15.15L771.57-15.15Q771.57-17.5 773.47-17.5L773.47-17.5 781.97-17.5 781.92-22.15Q781.92-23.4 781.15-24.43 780.37-25.45 778.52-25.45L778.52-25.45 772.27-25.45Q770.42-25.45 769.65-24.43 768.87-23.4 768.87-22.15L768.87-22.15ZM799.47-37.8L799.47-1.95Q799.47 0.4 796.72 0.4L796.72 0.4Q793.92 0.4 793.92-1.95L793.92-1.95 793.92-37.8Q793.92-40.15 796.72-40.15L796.72-40.15Q799.47-40.15 799.47-37.8L799.47-37.8ZM810.57 7L807.97 7Q806.22 7 806.12 4.65L806.12 4.65Q806.12 2.3 807.97 2.3L807.97 2.3 810.17 2.3Q811.92 2.3 812.47 1.25L812.47 1.25 813.17-0.6 813.42-1.4 803.67-26.95 803.67-26.9Q803.27-28.1 803.84-28.95 804.42-29.8 805.62-30.2L805.62-30.2Q806.52-30.45 807.07-30.45L807.07-30.45Q808.52-30.45 808.87-28.75L808.87-28.75 812.82-18.9 816.17-10.7 821.52-28.65Q821.97-30.45 823.62-30.45L823.62-30.45Q824.02-30.45 824.92-30.2L824.92-30.2Q826.12-29.85 826.64-29.05 827.17-28.25 826.87-27.15L826.87-27.15Q824.62-19.5 822.29-11.75 819.97-4 817.72 3.6L817.72 3.6Q817.47 4.15 816.94 4.73 816.42 5.3 815.57 5.83 814.72 6.35 813.47 6.68 812.22 7 810.57 7L810.57 7Z" opacity="1" transform="matrix(1,0,0,1,0,0)" fill="#130912" class="slogan-text-1" data-fill-palette-color="secondary" id="text-1"></path></svg></g></svg></g></svg></g></svg></g><g transform="matrix(1,0,0,1,76.53311999999995,0)"><svg viewBox="0 0 244.43135999999996 56.622605227317536" height="56.622605227317536" width="244.43135999999996"><g><svg xmlns="http://www.w3.org/2000/svg" xmlns:xlink="http://www.w3.org/1999/xlink" version="1.1" x="8" y="0" viewBox="5.336000442504883 38.92900085449219 89.3270034790039 22.14200210571289" enable-background="new 0 0 100 100" xml:space="preserve" height="56.622605227317536" width="228.43135999999996" class="icon-icon-0" data-fill-palette-color="accent" id="icon-0"><path d="M93.325 38.929H6.675c-0.74 0-1.339 0.6-1.339 1.339v19.464c0 0.74 0.6 1.339 1.339 1.339h86.649c0.74 0 1.339-0.6 1.339-1.339V40.268C94.664 39.529 94.064 38.929 93.325 38.929zM91.277 57.347H8.723V42.332h82.552 0.001V57.347z" fill="#e77917" data-fill-palette-color="accent"></path><path d="M21.738 50.648l-0.822-0.474 0.822-0.474c0.306-0.177 0.411-0.569 0.234-0.875l-0.414-0.717c-0.177-0.306-0.569-0.411-0.875-0.234l-0.822 0.474v-0.949c0-0.354-0.287-0.641-0.641-0.641h-0.827c-0.354 0-0.641 0.287-0.641 0.641v0.949l-0.822-0.474c-0.306-0.177-0.698-0.072-0.875 0.234l-0.414 0.717c-0.177 0.306-0.072 0.698 0.234 0.875l0.822 0.474-0.822 0.474c-0.306 0.177-0.411 0.569-0.234 0.875l0.414 0.717c0.177 0.306 0.569 0.411 0.875 0.235L17.753 52v0.949c0 0.354 0.287 0.641 0.641 0.641h0.827c0.354 0 0.641-0.287 0.641-0.641V52l0.822 0.474c0.306 0.177 0.698 0.072 0.875-0.235l0.414-0.717C22.149 51.217 22.044 50.825 21.738 50.648z" fill="#e77917" data-fill-palette-color="accent"></path><path d="M34.215 50.648l-0.822-0.474 0.822-0.474c0.306-0.177 0.411-0.569 0.234-0.875l-0.414-0.717c-0.177-0.306-0.569-0.411-0.875-0.234l-0.822 0.474v-0.949c0-0.354-0.287-0.641-0.641-0.641h-0.827c-0.354 0-0.641 0.287-0.641 0.641v0.949l-0.822-0.474c-0.306-0.177-0.698-0.072-0.875 0.234l-0.414 0.717c-0.177 0.306-0.072 0.698 0.234 0.875l0.822 0.474-0.822 0.474c-0.306 0.177-0.411 0.569-0.234 0.875l0.414 0.717c0.177 0.306 0.569 0.411 0.875 0.235L30.23 52v0.949c0 0.354 0.287 0.641 0.641 0.641h0.827c0.354 0 0.641-0.287 0.641-0.641V52l0.822 0.474c0.306 0.177 0.698 0.072 0.875-0.235l0.414-0.717C34.626 51.217 34.521 50.825 34.215 50.648z" fill="#e77917" data-fill-palette-color="accent"></path><path d="M46.692 50.648l-0.822-0.474 0.822-0.474c0.306-0.177 0.411-0.569 0.234-0.875l-0.414-0.717c-0.177-0.306-0.569-0.411-0.875-0.234l-0.822 0.474v-0.949c0-0.354-0.287-0.641-0.641-0.641h-0.827c-0.354 0-0.641 0.287-0.641 0.641v0.949l-0.822-0.474c-0.306-0.177-0.698-0.072-0.875 0.234l-0.414 0.717c-0.177 0.306-0.072 0.698 0.234 0.875l0.822 0.474-0.822 0.474c-0.306 0.177-0.411 0.569-0.234 0.875l0.414 0.717c0.177 0.306 0.569 0.411 0.875 0.235L42.707 52v0.949c0 0.354 0.287 0.641 0.641 0.641h0.827c0.354 0 0.641-0.287 0.641-0.641V52l0.822 0.474c0.306 0.177 0.698 0.072 0.875-0.235l0.414-0.717C47.103 51.217 46.998 50.825 46.692 50.648z" fill="#e77917" data-fill-palette-color="accent"></path><path d="M59.169 50.648l-0.822-0.474 0.822-0.474c0.306-0.177 0.411-0.569 0.234-0.875l-0.414-0.717c-0.177-0.306-0.569-0.411-0.875-0.234l-0.822 0.474v-0.949c0-0.354-0.287-0.641-0.641-0.641h-0.827c-0.354 0-0.641 0.287-0.641 0.641v0.949l-0.822-0.474c-0.306-0.177-0.698-0.072-0.875 0.234l-0.414 0.717c-0.177 0.306-0.072 0.698 0.234 0.875l0.822 0.474-0.822 0.474c-0.306 0.177-0.411 0.569-0.234 0.875l0.414 0.717c0.177 0.306 0.569 0.411 0.875 0.235L55.184 52v0.949c0 0.354 0.287 0.641 0.641 0.641h0.827c0.354 0 0.641-0.287 0.641-0.641V52l0.822 0.474c0.306 0.177 0.698 0.072 0.875-0.235l0.414-0.717C59.58 51.217 59.475 50.825 59.169 50.648z" fill="#e77917" data-fill-palette-color="accent"></path><path d="M71.646 50.648l-0.822-0.474 0.822-0.474c0.306-0.177 0.411-0.569 0.234-0.875l-0.414-0.717c-0.177-0.306-0.569-0.411-0.875-0.234l-0.822 0.474v-0.949c0-0.354-0.287-0.641-0.641-0.641h-0.827c-0.354 0-0.641 0.287-0.641 0.641v0.949l-0.822-0.474c-0.306-0.177-0.698-0.072-0.875 0.234l-0.414 0.717c-0.177 0.306-0.072 0.698 0.234 0.875l0.822 0.474-0.822 0.474c-0.306 0.177-0.411 0.569-0.234 0.875l0.414 0.717c0.177 0.306 0.569 0.411 0.875 0.235L67.661 52v0.949c0 0.354 0.287 0.641 0.641 0.641h0.827c0.354 0 0.641-0.287 0.641-0.641V52l0.822 0.474c0.306 0.177 0.698 0.072 0.875-0.235l0.414-0.717C72.057 51.217 71.952 50.825 71.646 50.648z" fill="#e77917" data-fill-palette-color="accent"></path><path d="M84.123 50.648l-0.822-0.474 0.822-0.474c0.306-0.177 0.411-0.569 0.234-0.875l-0.414-0.717c-0.177-0.306-0.569-0.411-0.875-0.234l-0.822 0.474v-0.949c0-0.354-0.287-0.641-0.641-0.641h-0.827c-0.354 0-0.641 0.287-0.641 0.641v0.949l-0.822-0.474c-0.306-0.177-0.698-0.072-0.875 0.234l-0.414 0.717c-0.177 0.306-0.072 0.698 0.234 0.875l0.822 0.474-0.822 0.474c-0.306 0.177-0.411 0.569-0.234 0.875l0.414 0.717c0.177 0.306 0.569 0.411 0.875 0.235L80.138 52v0.949c0 0.354 0.287 0.641 0.641 0.641h0.827c0.354 0 0.641-0.287 0.641-0.641V52l0.822 0.474c0.306 0.177 0.698 0.072 0.875-0.235l0.414-0.717C84.534 51.217 84.429 50.825 84.123 50.648z" fill="#e77917" data-fill-palette-color="accent"></path></svg></g></svg></g><g><rect width="1.4210854715202004e-14" height="3.9188565746962705" y="51.703748652621265" x="320.9644799999999" fill="#130912" data-fill-palette-color="secondary"></rect><rect width="1.4210854715202004e-14" height="3.9188565746962705" y="51.703748652621265" x="76.53311999999994" fill="#130912" data-fill-palette-color="secondary"></rect></g></svg></g><defs></defs></svg><rect width="395.52" height="148.02381132403332" fill="none" stroke="none" visibility="hidden"></rect></g></svg></g></svg>